<svg xmlns="http://www.w3.org/2000/svg" width="328" height="46" fill="none"><path fill="#FF014F" d="M12.032 39.112q-.288 0-.384-.128t-.16-.416q0-1.28-.064-2.592a95 95 0 0 0-.096-2.56v-3.84H9.44q-.032.416-.032.8v.768l-.064 1.568q0 .768-.064 1.568l-.064 1.952a67 67 0 0 1-.096 2.016q0 .384-.096.512t-.544.128q-.352.032-.736.096-.353.064-.672-.224-.032-.031-.16.032-.096.064-.16.032-.16 0-.352-.032a11 11 0 0 0-.352-.064 2.9 2.9 0 0 1-1.28.16 213 213 0 0 0-1.376-.064V37.64q.064-.992-.032-1.952a4.9 4.9 0 0 1 .256-1.92q.064-.096.064-.32 0-.704-.032-1.344a28 28 0 0 1-.032-1.344q.096-1.728.096-3.36a68 68 0 0 0 .128-2.912q.032-1.44.032-2.912.064-1.12.064-2.24v-2.24a11 11 0 0 0-.096-.832 4 4 0 0 1 .032-.864q.288-1.248.896-2.24a5.5 5.5 0 0 1 1.664-1.696q.449-.288.864-.544.449-.288.96-.416a.3.3 0 0 0 .16-.064.4.4 0 0 1 .224-.064q.896 0 1.792-.032.928-.032 1.824.096.448.032.896.32.48.255.832.544a5.9 5.9 0 0 1 1.504 1.664q.608.96 1.024 2.016-.128.672.16 1.312t.448 1.28v21.568H13.6q-.416 0-.8-.032zm-.704-15.584a9.6 9.6 0 0 1 .032-1.76 9.4 9.4 0 0 0 .032-1.728 11 11 0 0 1 0-1.664 6.7 6.7 0 0 0-.096-1.728l-.768.064q-.353 0-.704.032a180 180 0 0 1-.096 3.392L9.6 23.528zm114.952 15.52.128-.448a1.4 1.4 0 0 0 .128-.416.6.6 0 0 0 0-.384 1.1 1.1 0 0 1 0-.384q.063-.255.096-.512.031-.255-.224-.48-.032-.032.064-.192t.16-.288q-.353-.448-.32-.928.031-.48.096-.96.063-.384.192-.704.128-.353.224-.672a.3.3 0 0 0 .032-.096v-.032q-.417-.48-.288-.96.128-.512.128-.96a148 148 0 0 0 .032-3.04q0-1.536.032-3.072l.128-2.624q.096-1.312.16-2.592.032-1.28.032-2.528t.032-2.496q.064-.735.064-1.44 0-.736.032-1.504 0-.096.032-.192.031-.128.064-.16a8.8 8.8 0 0 1 2.24-.16q1.152.064 2.304.096a8.5 8.5 0 0 0 2.304-.256.94.94 0 0 1 .288.288.65.65 0 0 1 .128.416q-.065 1.28-.128 2.592l-.128 2.624q0 .416.032.8.032.352.032.768-.033.353 0 .704.032.353-.256.704-.065.16 0 .224.352.511.16.928a8 8 0 0 0-.352.928q.384.256.416.672.031.384-.032.8a22.7 22.7 0 0 0-.192 4.512q0 .607-.064 1.216-.065.576-.128 1.184v1.664q-.032.512-.032 1.024 0 .511-.032 1.056-.033 1.185-.096 2.432-.033 1.248-.096 2.496-.032.8-.8.8h-.928a1.18 1.18 0 0 1-.864-.288.4.4 0 0 0-.16-.096h-.128q-.288.255-.576.128a6 6 0 0 0-.512-.224 2 2 0 0 0-.256.224 1.5 1.5 0 0 1-.288.224q-.129 0-.16-.032-.225-.288-.544-.288-.321 0-.576.128-.672.416-1.152-.064a.4.4 0 0 0-.192-.096.7.7 0 0 1-.256-.064m7.936-.288v-2.72q0-1.376.256-2.752.063-.448.032-.928a16 16 0 0 1-.032-1.024q.032-.288.032-.576.031-.288.064-.672a61 61 0 0 1 1.952-.032q.991-.032 1.984.128v1.536q.031.768 0 1.536-.064 1.312-.16 2.656-.096 1.313-.16 2.624-.033.608-.192.768-.16.192-.768.192h-2.272q-.449 0-.608-.16-.129-.127-.128-.576"/><path fill="silver" d="m29.007 21.928-.096 5.184v5.44q.063 1.376 0 2.784-.033 1.376.096 2.688H23.63l-.224-16q.192-.032.864-.032.704-.032 1.6 0h1.76a57 57 0 0 0 1.376-.064m.512.672a1.6 1.6 0 0 1-.032-.32 2 2 0 0 0-.032-.352l5.92.192v4.416a3 3 0 0 0-.064.224q0 .096-.032.192v.352q.031.16.064.416l-.128.128q-.064.064-.192.064a5 5 0 0 1-.576-.032 4 4 0 0 0-.544-.096 4 4 0 0 0-.512-.096q-.225-.064-.48-.128a.7.7 0 0 1-.288-.128l-.256-.128a.9.9 0 0 0-.224-.16q-1.312-.768-1.888-1.952a7.9 7.9 0 0 1-.736-2.592m17.949 2.272 1.376.064q.704.032 1.408.096.127.32.16 1.12.063.8.032 1.696 0 .896-.128 1.504-.705-.032-1.44-.032l-1.44-.064v3.072q.063 1.92 0 3.84a37 37 0 0 0 .128 3.776H42.06l-.128-10.784a371 371 0 0 0-2.944-.256v-2.272q.032-.544.032-1.12.032-.576.128-.96t.288-.288q.607.032 1.216.096.639.064 1.248.128l-.064-6.784q.192-.064.896-.064h3.424a56 56 0 0 0 1.408-.064l-.096 7.2zm21.536-3.488.256 2.528q.127 1.248.256 2.464.063 1.088.032 1.92 0 .832-.032.832v8.736h-6.464l-.064-.672v-.576a498 498 0 0 1-.096-9.76q0-1.312.064-2.688.063-1.376.096-2.784zm-8.576 1.856a249 249 0 0 1-.288 3.808q-.16 1.92-.32 3.872l2.816.064q-.032 1.28-.032 2.56v2.528l-.064.256a.7.7 0 0 0-.032.224v.384q.031.16.064.48a1 1 0 0 1-.128.096.3.3 0 0 1-.224.096q-.32.031-.64-.032a7 7 0 0 1-.64-.096 29 29 0 0 1-.608-.128l-.576-.128a1.1 1.1 0 0 1-.32-.16l-.256-.128a1.3 1.3 0 0 0-.288-.16q-1.473-.864-2.144-2.176a8.5 8.5 0 0 1-.864-2.88h-.064v-.32q.032-.16.032-.288a.36.36 0 0 1-.032-.16v-.16h.032v-1.344q.032-.672.128-1.312a13 13 0 0 0 .16-1.536l.064-1.536.064-1.376q.063-.736.096-1.536.896.031 1.76-.032a3.7 3.7 0 0 1 1.664.256q.384.128.544.288.159.16.096.576m22.079-1.312-.096 5.184v5.44q.063 1.376 0 2.784-.033 1.376.096 2.688H77.13l-.224-16q.192-.032.864-.032.704-.032 1.6 0h1.76a57 57 0 0 0 1.376-.064m.512.672a1.6 1.6 0 0 1-.032-.32 2 2 0 0 0-.032-.352l5.92.192v4.416a3 3 0 0 0-.064.224q0 .096-.032.192v.352q.031.16.064.416l-.128.128q-.065.064-.192.064a5 5 0 0 1-.576-.032 4 4 0 0 0-.544-.096 4 4 0 0 0-.512-.096q-.225-.064-.48-.128a.7.7 0 0 1-.288-.128l-.256-.128a.9.9 0 0 0-.224-.16q-1.312-.768-1.888-1.952a7.9 7.9 0 0 1-.736-2.592m67.915-2.048a.56.56 0 0 0-.448-.064 1.1 1.1 0 0 1-.448.032 4.5 4.5 0 0 0-.928-.032q-.448.032-.928.032a1672 1672 0 0 0-3.808-.128q.032-.192.032-.352.032-.192.064-.352 0-.544.224-.96t.512-.8q.511-.672 1.44-.864.544-.16 1.056-.128.512 0 1.056.128.352.032.672.224.32.16.544.416.257.224.48.512.256.288.352.672.096.287.288.416.16.096.128.288a2.4 2.4 0 0 0-.032.384q0 .192-.032.384a.34.34 0 0 1-.064.192q-.064.064-.16 0m-.256 2.688-.096 5.184v5.408a29 29 0 0 1 0 2.752q-.065 1.376.096 2.72h-5.376l-.256-16q.192-.032.864-.032a20 20 0 0 1 1.6 0h1.792q.864 0 1.376-.032m15.384-.512q1.151.672 1.664 1.696.511 1.024.64 2.272.032.128.032.288v.288l-5.184-.128v-1.952q0-.96.032-1.952 0-.096.064-.352 0-.16-.032-.32 0-.16-.032-.384.031 0 .096-.064a.34.34 0 0 1 .192-.064q.255-.031.48 0 .255.032.48.096.255.032.448.096.223.031.448.096a.7.7 0 0 1 .256.128q.224.096.416.256m-3.328-.48a.5.5 0 0 1 .256.128q.096.064.032.224a.88.88 0 0 0-.128.64q.063.32.032.64-.064.64-.064 1.312.031.672 0 1.344-.064 1.344-.16 2.72-.096 1.344-.192 2.784a6 6 0 0 0-.544-.096 1.8 1.8 0 0 0-.48-.064 3.5 3.5 0 0 1-1.344-.384 8.5 8.5 0 0 1-1.152-.8 2.9 2.9 0 0 1-.768-.928 6.6 6.6 0 0 1-.416-1.152 6 6 0 0 1-.128-1.504 9.4 9.4 0 0 1 .192-1.536q.224-1.025.992-1.728.351-.383.768-.704.447-.32.96-.448l.32-.128q.159-.096.288-.256.192-.225.448-.16.255.032.544.064.288 0 .544.032m2.88 7.744q1.088.64 1.568 1.632t.576 2.176q.063.512.032 1.024 0 .512-.16 1.024 0 .16-.064.192l-.512.832a9 9 0 0 1-.576.768.6.6 0 0 1-.256.192 4 4 0 0 1-.288.192l-.768.384q-.384.192-.8.416l.064.064a.7.7 0 0 0 .128.16 3 3 0 0 0-.224.064q-.064.032-.16 0-.32 0-.64-.032l-.672-.064q-.16 0-.288-.032-.129-.032-.192-.256-.032-.352.352-.48.031 0 .064-.032a.3.3 0 0 0 .096-.032v-.8q0-.384.032-.768.032-1.536.032-3.072t.032-3.04q0-.16.064-.352 0-.16-.032-.288 0-.16-.032-.384.031 0 .096-.064a.34.34 0 0 1 .192-.064q.223-.032.448 0 .223.031.448.096.224.032.416.096.191.032.416.096.063 0 .128.032a.4.4 0 0 1 .096.064zm-3.136 7.456v.32q.031.16.064.416a1 1 0 0 1-.128.096.4.4 0 0 1-.192.096q-.257 0-.512-.064l-.512-.064a15 15 0 0 1-.48-.128q-.225-.032-.48-.064l-.256-.128a1.6 1.6 0 0 1-.256-.16 2 2 0 0 0-.224-.128q-1.217-.705-1.76-1.792a7.6 7.6 0 0 1-.704-2.432 1.6 1.6 0 0 1-.032-.32v-.32l5.568.16v2.08q0 1.024-.032 2.048a.6.6 0 0 1-.032.192.6.6 0 0 0-.032.192m19.751-.512q-.416.032-.832.032h-.832q0 1.471.096 2.976h-5.472l-.256-22.24q.192-.064.896-.064a37 37 0 0 1 1.632-.032h1.792q.896 0 1.44-.032l-.128 7.2v4.992a.7.7 0 0 1 .256-.128.8.8 0 0 1 .352-.064.8.8 0 0 1 .32 0q.192 0 .32-.032 1.409-.16 2.592.352a9.6 9.6 0 0 1 2.304 1.312q1.505 1.152 2.112 3.072.16.416.224.928.065.48.096.928.031.416-.096.544-.128.096-.544.128l-3.136.064zm6.752.16h.032a.3.3 0 0 1 .096.032l.096 2.272a8 8 0 0 0-1.216.032 4.7 4.7 0 0 1-1.216-.032 10 10 0 0 0-1.12-.064q-.576.032-1.12.032h-.864q-.512-.064-.512-.448.032-.353.032-.704l.064-.64q.065-.416.48-.416a108 108 0 0 1 2.624-.032q1.312 0 2.624-.032m14.629-11.744q-.031.672-.096 1.344-.031.64-.096 1.28-.032.576-.032 1.152v1.184l.064 1.248.064 1.248q.032.607.032 1.216 0 .576-.16 1.152-.032.096.032.224a.8.8 0 0 1 .096.192q.032.16.064.288a.6.6 0 0 1 .064.288q.032.352-.032.672t.032.672q.032.352-.416.416-.512.032-.96-.064a14 14 0 0 1-.896-.224 10 10 0 0 1-1.536-.64q-.704-.384-1.44-.8-1.152-.767-1.824-1.856a12 12 0 0 1-1.12-2.368 1 1 0 0 1-.032-.224v-1.536a8.6 8.6 0 0 0-.032-1.28 5 5 0 0 1 .288-1.888q.353-.864.864-1.664 1.76-2.496 4.832-3.488.16-.064.32-.16a.85.85 0 0 1 .384-.096q.416-.032.832-.032h.8v.576q.031.225 0 .48l-.064 1.376q0 .672-.032 1.312m1.152 2.592q-.448-.064-.448-.544l.128-2.816.128-2.816v-.032l.064-.064h2.432a9.4 9.4 0 0 0-.032 1.344q.031.64-.096 1.28a7 7 0 0 0-.16 1.184q0 .607-.032 1.216-.032.225-.032.448 0 .225-.032.48-.064.544-.512.512l-.704-.064a4 4 0 0 1-.704-.128m-.448 9.408q0-.288-.032-.576 0-.32.032-.608v-1.696l.064-1.76q0-.416.128-.512.128-.128.512-.128.416-.064.832-.032t.928.032v.64q.032.288.032.544 0 .512-.032.992v.928q0 .48-.032.96 0 .48.064.96.064.32-.064.416-.096.128-.416.192l-.64.064-.64.128q-.704.096-.736-.544m18.54-.416q-.416.032-.832.032h-.832q0 1.471.096 2.976h-5.472l-.256-22.24q.192-.064.896-.064a37 37 0 0 1 1.632-.032h1.792q.896 0 1.44-.032l-.128 7.2v4.992a.7.7 0 0 1 .256-.128.8.8 0 0 1 .352-.064.8.8 0 0 1 .32 0q.192 0 .32-.032 1.409-.16 2.592.352a9.6 9.6 0 0 1 2.304 1.312q1.505 1.152 2.112 3.072.16.416.224.928.065.48.096.928.031.416-.096.544-.128.096-.544.128l-3.136.064zm6.752.16h.032a.3.3 0 0 1 .096.032l.096 2.272a8 8 0 0 0-1.216.032 4.7 4.7 0 0 1-1.216-.032 10 10 0 0 0-1.12-.064q-.576.032-1.12.032h-.864q-.512-.064-.512-.448.032-.353.032-.704l.064-.64q.065-.416.48-.416a108 108 0 0 1 2.624-.032q1.312 0 2.624-.032m17.093-11.552.896.032q.544.064 1.12.16.576.064 1.184.128-.096.48-.192.928a7 7 0 0 1-.192.896 6.45 6.45 0 0 1-1.504 2.752q-.384.735-.736 1.472-.511 1.024-1.056 2.08a91 91 0 0 1-1.056 2.048q-.512.992-1.056 2.016a91 91 0 0 1-1.056 2.048l-1.024 2.048a13 13 0 0 1-1.216 2.016l-4.448-2.272q.065-.127.096-.256l.064-.192q.864-1.695 1.696-3.36l1.728-3.328a.6.6 0 0 1 .192-.256.8.8 0 0 0 .224-.256q.192-.256.32-.448l.192-.384a5 5 0 0 1 .192-.352 7 7 0 0 1-1.824-.704 17 17 0 0 1-1.6-1.12 5.7 5.7 0 0 1-1.312-1.472 6.6 6.6 0 0 1-.768-1.824 7.5 7.5 0 0 1-.192-.992 16 16 0 0 1-.032-.992q-.031-.448.096-.544.16-.128.576-.128l3.296.064 3.264.064 1.952.064q.96.031 1.92.096.032.031.256-.032m16.988-2.816q1.151.672 1.664 1.696.511 1.024.64 2.272.032.128.032.288v.288l-5.184-.128v-1.952q0-.96.032-1.952 0-.096.064-.352 0-.16-.032-.32 0-.16-.032-.384.031 0 .096-.064a.34.34 0 0 1 .192-.064q.255-.031.48 0 .255.032.48.096.255.032.448.096.223.031.448.096a.7.7 0 0 1 .256.128q.224.096.416.256m-3.328-.48a.5.5 0 0 1 .256.128q.096.064.032.224a.88.88 0 0 0-.128.64q.063.32.032.64-.064.64-.064 1.312.031.672 0 1.344-.064 1.344-.16 2.72-.096 1.344-.192 2.784a6 6 0 0 0-.544-.096 1.8 1.8 0 0 0-.48-.064 3.5 3.5 0 0 1-1.344-.384 8.5 8.5 0 0 1-1.152-.8 2.9 2.9 0 0 1-.768-.928 6.6 6.6 0 0 1-.416-1.152 6 6 0 0 1-.128-1.504 9.4 9.4 0 0 1 .192-1.536q.224-1.025.992-1.728.351-.383.768-.704.447-.32.96-.448l.32-.128q.159-.096.288-.256.192-.225.448-.16.255.032.544.064.288 0 .544.032m2.88 7.744q1.088.64 1.568 1.632t.576 2.176q.063.512.032 1.024 0 .512-.16 1.024 0 .16-.064.192l-.512.832a9 9 0 0 1-.576.768.6.6 0 0 1-.256.192 4 4 0 0 1-.288.192l-.768.384q-.384.192-.8.416l.064.064a.7.7 0 0 0 .128.16 3 3 0 0 0-.224.064q-.064.032-.16 0-.32 0-.64-.032l-.672-.064q-.16 0-.288-.032-.129-.032-.192-.256-.032-.352.352-.48.031 0 .064-.032a.3.3 0 0 0 .096-.032v-.8q0-.384.032-.768.032-1.536.032-3.072t.032-3.04q0-.16.064-.352 0-.16-.032-.288 0-.16-.032-.384.032 0 .096-.064a.34.34 0 0 1 .192-.064q.223-.032.448 0 .223.031.448.096.224.032.416.096.191.032.416.096.063 0 .128.032a.4.4 0 0 1 .096.064zm-3.136 7.456v.32q.031.16.064.416a1 1 0 0 1-.128.096.4.4 0 0 1-.192.096q-.257 0-.512-.064l-.512-.064a15 15 0 0 1-.48-.128q-.225-.032-.48-.064l-.256-.128a1.6 1.6 0 0 1-.256-.16 2 2 0 0 0-.224-.128q-1.217-.705-1.76-1.792a7.6 7.6 0 0 1-.704-2.432 1.6 1.6 0 0 1-.032-.32v-.32l5.568.16v2.08q0 1.024-.032 2.048a.6.6 0 0 1-.032.192.6.6 0 0 0-.032.192m19.751-.512q-.416.032-.832.032h-.832q0 1.471.096 2.976h-5.472l-.256-22.24q.192-.064.896-.064a37 37 0 0 1 1.632-.032h1.792q.896 0 1.44-.032l-.128 7.2v4.992a.7.7 0 0 1 .256-.128.8.8 0 0 1 .352-.064.8.8 0 0 1 .32 0q.192 0 .32-.032 1.409-.16 2.592.352a9.6 9.6 0 0 1 2.304 1.312q1.504 1.152 2.112 3.072.16.416.224.928.065.48.096.928.031.416-.096.544-.128.096-.544.128l-3.136.064zm6.752.16h.032a.3.3 0 0 1 .096.032l.096 2.272a8 8 0 0 0-1.216.032 4.7 4.7 0 0 1-1.216-.032 10 10 0 0 0-1.12-.064q-.576.032-1.12.032h-.864q-.512-.064-.512-.448.032-.353.032-.704l.064-.64q.065-.416.48-.416a108 108 0 0 1 2.624-.032q1.312 0 2.624-.032m17.093-11.552.896.032q.544.064 1.12.16.576.064 1.184.128-.096.48-.192.928a7 7 0 0 1-.192.896 6.45 6.45 0 0 1-1.504 2.752q-.384.735-.736 1.472-.511 1.024-1.056 2.08a91 91 0 0 1-1.056 2.048q-.511.992-1.056 2.016a91 91 0 0 1-1.056 2.048l-1.024 2.048a13 13 0 0 1-1.216 2.016l-4.448-2.272q.065-.127.096-.256l.064-.192q.864-1.695 1.696-3.36l1.728-3.328a.6.6 0 0 1 .192-.256.8.8 0 0 0 .224-.256q.192-.256.32-.448l.192-.384a5 5 0 0 1 .192-.352 7 7 0 0 1-1.824-.704 17 17 0 0 1-1.6-1.12 5.7 5.7 0 0 1-1.312-1.472 6.6 6.6 0 0 1-.768-1.824 7.5 7.5 0 0 1-.192-.992 16 16 0 0 1-.032-.992q-.031-.448.096-.544.16-.128.576-.128l3.296.064 3.264.064 1.952.064q.96.031 1.92.096.032.031.256-.032m8.06 5.248v-8.736h6.4q.063.32.064.64v.608q.096 4.832.096 9.728 0 1.312-.064 2.688a128 128 0 0 1-.096 2.72h-5.92q-.129-1.215-.256-2.464a80 80 0 0 0-.224-2.432 66 66 0 0 1-.032-1.92q0-.832.032-.832m13.536-2.592h.032v.896q-.033.704-.032 1.376 0 .64-.128 1.312-.128.736-.128 1.504t-.064 1.536q-.033.672-.064 1.408-.033.704-.096 1.472a15 15 0 0 0-1.728.032 3.8 3.8 0 0 1-1.664-.256q-.417-.128-.576-.288-.129-.16-.096-.544l.32-3.808.32-3.84-2.816-.096q.032-1.248.032-2.496v-2.56q.031-.128.064-.224.032-.127.032-.256 0-.16-.032-.352 0-.224-.032-.544.032 0 .128-.096a.3.3 0 0 1 .224-.096q.351 0 .64.032.32.032.64.096.288.032.576.128l.576.128q.128.032.32.16.288.128.544.352 1.472.833 2.144 2.144a8.5 8.5 0 0 1 .864 2.88"/></svg>